<svg
    version="1.1"
    id="Layer_1"
    xmlns="http://www.w3.org/2000/svg"
    xmlnsXlink="http://www.w3.org/1999/xlink"
    x="0px"
    y="0px"
    width="512px"
    height="512px"
    viewBox="0 0 512 512"
    enable-background="new 0 0 512 512"
    xmlSpace="preserve"

  >
    <path
      fill="white"
      d="M336,474.5v32H176v-32c0-17.688,14.313-32,32-32h32V231.563c-18.625-6.625-32-24.188-32-45.063c0-26.5,21.5-48,48-48
    s48,21.5,48,48c0,20.875-13.438,38.438-32,45.063V442.5h32C321.688,442.5,336,456.813,336,474.5z M176.813,265.688L188.063,277
    l22.688-22.625l-11.313-11.313c-31.188-31.188-31.188-81.938,0-113.125l11.313-11.313L188.125,96l-11.313,11.313
    C133.125,150.938,133.125,222,176.813,265.688z M154.188,84.688L165.5,73.375L142.875,50.75l-11.313,11.313
    c-68.625,68.625-68.625,180.25,0,248.875l11.313,11.313l22.625-22.625l-11.313-11.313C98,232.188,98,140.813,154.188,84.688z
     M108.938,39.438l11.313-11.313L97.625,5.5L86.313,16.813c-93.563,93.563-93.563,245.813,0,339.438l11.313,11.313l22.625-22.625
    l-11.313-11.313C27.813,252.5,27.813,120.5,108.938,39.438z M312.563,243.063l-11.313,11.313L323.938,277l11.25-11.313
    c43.688-43.688,43.688-114.75,0-158.375L323.875,96l-22.625,22.625l11.313,11.313C343.75,161.125,343.75,211.875,312.563,243.063z
     M380.438,62.063L369.125,50.75L346.5,73.375l11.313,11.313c56.125,56.125,56.125,147.5,0,203.625L346.5,299.625l22.625,22.625
    l11.313-11.313C449.063,242.313,449.063,130.688,380.438,62.063z M425.688,16.813L414.375,5.5L391.75,28.125l11.313,11.313
    c81.063,81.063,81.063,213,0,294.188l-11.313,11.313l22.625,22.625l11.313-11.313C519.25,262.625,519.25,110.313,425.688,16.813z"
    />
  </svg>